<svg width="150" height="150" viewBox="0 0 150 150" fill="none" xmlns="http://www.w3.org/2000/svg">
<path fill-rule="evenodd" clip-rule="evenodd" d="M30.6144 50.9672C31.3131 50.3266 30.8749 49.1026 29.9269 49.1026L21.2152 49.1026C20.5857 49.1026 20.1126 49.6774 20.237 50.2946C20.8028 53.1025 21.4109 55.859 22.0595 58.5601C22.2696 59.4353 23.4539 59.6063 23.9454 58.8523C25.8526 55.9264 28.0959 53.276 30.6144 50.9672ZM127.94 58.5603C127.73 59.4355 126.546 59.6066 126.054 58.8525C124.147 55.9265 121.904 53.2761 119.385 50.9672C118.687 50.3266 119.125 49.1026 120.073 49.1026L128.785 49.1026C129.414 49.1026 129.887 49.6774 129.763 50.2946C129.197 53.1026 128.589 55.8592 127.94 58.5603Z" fill="white"/>
<path fill-rule="evenodd" clip-rule="evenodd" d="M82.8089 119.817C82.8089 120.951 83.9011 122.017 84.9284 121.536C92.3877 118.046 97.7184 110.765 98.4396 102.172C98.532 101.071 97.6277 100.174 96.5231 100.174H53.3802C52.2757 100.174 51.3713 101.071 51.4637 102.172C52.185 110.765 57.5157 118.047 64.975 121.536C66.0023 122.017 67.0946 120.951 67.0946 119.817V119.817C67.0946 115.477 70.6123 111.96 74.9517 111.96C79.2911 111.96 82.8089 115.477 82.8089 119.817V119.817Z" fill="white"/>
<path d="M35.7144 86.247C35.7144 86.1278 35.8109 86.0313 35.93 86.0313H114.07C114.189 86.0313 114.286 86.1279 114.286 86.247V86.247C114.286 92.203 109.457 97.0313 103.501 97.0313H46.4987C40.5426 97.0313 35.7144 92.203 35.7144 86.247V86.247Z" fill="white"/>
<path fill-rule="evenodd" clip-rule="evenodd" d="M88.6332 39.6741C87.8852 39.6741 87.2424 39.1779 86.7136 38.6491L77.2887 29.2242C76.1171 28.0526 74.2176 28.0526 73.046 29.2242L63.6212 38.6491C63.0923 39.1779 62.4495 39.6741 61.7016 39.6741H53.3802C52.2757 39.6741 51.3714 40.5727 51.4638 41.6734C51.5678 42.9113 50.7313 44.0666 49.5129 44.309C32.6842 47.6564 20 62.5061 20 80.3183C20 81.7378 21.1507 82.8884 22.5701 82.8884H127.43C128.849 82.8884 130 81.7378 130 80.3183C130 62.4687 117.262 47.594 100.381 44.288C99.1696 44.0508 98.3362 42.9036 98.4395 41.6734C98.5319 40.5727 97.6276 39.6741 96.5231 39.6741H88.6332ZM39.6429 64.817C39.6429 58.3079 44.9195 53.0313 51.4286 53.0313C57.9377 53.0313 63.2143 58.3079 63.2143 64.817C63.2143 71.3261 57.9377 76.6027 51.4286 76.6027C44.9195 76.6027 39.6429 71.3261 39.6429 64.817ZM98.5714 53.0313C92.0623 53.0313 86.7857 58.3079 86.7857 64.817C86.7857 71.3261 92.0623 76.6027 98.5714 76.6027C105.08 76.6027 110.357 71.3261 110.357 64.817C110.357 58.3079 105.08 53.0313 98.5714 53.0313Z" fill="white"/>
</svg>
